<?xml version="1.0" encoding="utf-8"?>
<!-- Generator: Adobe Illustrator 19.2.1, SVG Export Plug-In . SVG Version: 6.00 Build 0)  -->
<svg version="1.1" id="Layer_1" xmlns="http://www.w3.org/2000/svg" xmlns:xlink="http://www.w3.org/1999/xlink" x="0px" y="0px"
	 viewBox="0 0 48 48" style="enable-background:new 0 0 48 48;" xml:space="preserve">
<style type="text/css">
	.st0{fill:none;}
	.st1{fill:#15749C;}
</style>
<path class="st0" d="M0,0h48v48H0V0z"/>
<path class="st1" d="M31,11c2.2,0,4-1.8,4-4s-1.8-4-4-4s-4,1.8-4,4S28.8,11,31,11z M10,24C4.4,24,0,28.4,0,34s4.4,10,10,10
	s10-4.4,10-10S15.6,24,10,24z M10,41c-3.8,0-7-3.2-7-7s3.2-7,7-7s7,3.2,7,7S13.8,41,10,41z M21.6,21l4.8-4.8l1.6,1.6
	c2.6,2.6,6,4.2,10.2,4.2v-4c-3,0-5.4-1.2-7.2-3l-3.8-3.8c-1-0.8-2-1.2-3.2-1.2s-2.2,0.4-2.8,1.2l-5.6,5.6c-0.8,0.8-1.2,1.8-1.2,2.8
	c0,1.2,0.4,2.2,1.2,2.8L22,28v10h4V25.6L21.6,21z M38,24c-5.6,0-10,4.4-10,10s4.4,10,10,10s10-4.4,10-10S43.6,24,38,24z M38,41
	c-3.8,0-7-3.2-7-7s3.2-7,7-7s7,3.2,7,7S41.8,41,38,41z"/>
</svg>
